<svg viewBox="0 0 787 115" xmlns="http://www.w3.org/2000/svg"><title>bridals</title><path d="M63.634 53.837c15.122 1.589 25.83 4.913 32.126 9.973 6.296 5.06 9.443 11.386 9.443 18.976 0 6.178-1.853 11.488-5.56 15.93-3.707 4.443-9.15 7.84-16.328 10.194-7.178 2.354-15.915 3.53-26.212 3.53l-8.826-.176a804.649 804.649 0 0 0-23.653-.353c-10.944 0-19.152.176-24.624.53v-3.62c4.06-.176 7.002-.646 8.826-1.411 1.824-.765 3.074-2.177 3.75-4.237.677-2.059 1.016-5.354 1.016-9.884V21.71c0-4.589-.339-7.913-1.015-9.973-.677-2.06-1.927-3.456-3.751-4.192C7.002 6.811 4.06 6.355 0 6.178V2.56c5.472.354 13.533.53 24.183.53 2.294 0 9.178-.088 20.652-.265l8.12-.088c14.474 0 25.227 2.133 32.258 6.399C92.244 13.4 95.76 19.505 95.76 27.448c0 6.237-2.516 11.533-7.546 15.887-5.031 4.354-13.224 7.737-24.58 10.15v.352zM50.572 6.178c-2.648 0-4.62.427-5.914 1.28-1.294.853-2.191 2.368-2.691 4.545s-.75 5.413-.75 9.708v31.773h6.001c7.649 0 12.96-2.103 15.93-6.31 2.972-4.207 4.458-10.106 4.458-17.696 0-7.825-1.339-13.665-4.016-17.52-2.677-3.853-7.017-5.78-13.018-5.78zm.265 102.114c8.767 0 15.195-2.206 19.284-6.619 4.09-4.413 6.134-10.944 6.134-19.593 0-8.414-2.06-14.769-6.178-19.064-4.119-4.295-10.738-6.443-19.858-6.443h-9.003V93.29c0 4.354.25 7.56.75 9.62.5 2.059 1.413 3.471 2.737 4.236 1.323.765 3.368 1.147 6.134 1.147zm190.285-3.442c-2.883 3.354-6.148 5.884-9.796 7.59-3.648 1.707-8.15 2.56-13.504 2.56-6.884 0-12.194-1.339-15.93-4.016-3.736-2.677-6.164-6.251-7.281-10.723l-5.208-21.27c-.941-4.59-2.177-8.09-3.706-10.503-1.53-2.412-3.413-4.06-5.649-4.942-2.236-.883-5.119-1.324-8.65-1.324h-6v31.067c0 4.53.338 7.825 1.014 9.884.677 2.06 1.927 3.472 3.751 4.237 1.824.765 4.766 1.235 8.826 1.412v3.619c-7.002-.354-16.828-.53-29.478-.53-11.415 0-19.858.176-25.33.53v-3.62c4.06-.176 7.002-.646 8.826-1.411 1.824-.765 3.074-2.177 3.75-4.237.677-2.059 1.015-5.354 1.015-9.884V21.71c0-4.589-.338-7.913-1.014-9.973-.677-2.06-1.927-3.456-3.751-4.192-1.824-.735-4.766-1.191-8.826-1.368V2.56c5.472.354 13.533.53 24.182.53 2.295 0 9.18-.088 20.653-.265l8.12-.088c16.239 0 28.345 2.442 36.318 7.325 7.972 4.884 11.959 11.65 11.959 20.3 0 4.707-1.28 9.15-3.84 13.327-2.56 4.177-6.943 7.825-13.15 10.944-6.208 3.118-14.43 5.177-24.668 6.178 2.177.235 3.942.441 5.295.617 8.65 1 15.49 2.942 20.52 5.825 5.031 2.884 8.311 7.444 9.841 13.68l3.795 16.152c.824 3.471 1.824 5.898 3 7.28 1.178 1.384 2.707 2.075 4.59 2.075 2.53 0 5.12-1.324 7.767-3.972l2.56 2.383zm-66.37-98.672c-2.647 0-4.618.427-5.913 1.28-1.294.853-2.191 2.368-2.692 4.545-.5 2.177-.75 5.413-.75 9.708v36.892h7.767c6.12 0 10.9-1.118 14.342-3.354 3.442-2.235 5.795-5.266 7.06-9.09 1.265-3.825 1.898-8.443 1.898-13.857 0-8.708-1.677-15.239-5.03-19.593-3.355-4.354-8.915-6.53-16.681-6.53zm132.654 0c-4.119.177-7.075.647-8.87 1.412-1.794.765-3.03 2.162-3.707 4.192-.676 2.03-1.015 5.34-1.015 9.93v71.577c0 4.53.339 7.825 1.015 9.884.677 2.06 1.927 3.472 3.751 4.237 1.824.765 4.766 1.235 8.826 1.412v3.619c-6.237-.354-15.18-.53-26.83-.53-12.71 0-22.035.176-27.978.53v-3.62c4.06-.176 7.002-.646 8.826-1.411 1.824-.765 3.074-2.177 3.75-4.237.677-2.059 1.016-5.354 1.016-9.884V21.71c0-4.53-.339-7.825-1.015-9.884-.677-2.06-1.927-3.472-3.751-4.237-1.824-.765-4.766-1.235-8.826-1.412V2.56c5.884.354 15.21.53 27.978.53 11.65 0 20.593-.176 26.83-.53v3.62zm75.198-3.619c21.005 0 36.76 4.531 47.262 13.592 10.503 9.061 15.754 22.359 15.754 39.893 0 11.356-2.545 21.27-7.634 29.743-5.09 8.472-12.504 15.033-22.241 19.681-9.738 4.648-21.344 6.973-34.818 6.973-3.177 0-7.12-.089-11.827-.265a12150.8 12150.8 0 0 1-16.68-.265c-10.944 0-19.152.176-24.624.53v-3.62c4.06-.176 7.001-.646 8.825-1.411 1.824-.765 3.075-2.177 3.751-4.237.677-2.059 1.015-5.354 1.015-9.884V21.71c0-4.589-.338-7.913-1.015-9.973-.676-2.06-1.927-3.456-3.75-4.192-1.825-.735-4.767-1.191-8.826-1.368V2.56c7.001.412 13.415.618 19.24.618l4.942-.088 8.473-.176c10.473-.236 17.857-.354 22.153-.354zm-2.383 3.266c-3.178 0-5.546.427-7.105 1.28-1.56.853-2.633 2.353-3.221 4.5-.589 2.149-.883 5.4-.883 9.753v72.284c0 4.354.294 7.604.883 9.752.588 2.148 1.676 3.648 3.265 4.501 1.589.853 4.001 1.28 7.237 1.28 9.297 0 16.593-1.971 21.888-5.913 5.296-3.943 9.032-9.709 11.209-17.299 2.177-7.59 3.266-17.328 3.266-29.213 0-11.71-1.177-21.27-3.53-28.684-2.354-7.414-6.194-12.974-11.518-16.68-5.325-3.708-12.489-5.561-21.491-5.561zM557.18 97.26c3.471 7.532 7.266 11.385 11.385 11.562v3.619c-5.649-.354-13.562-.53-23.741-.53-12.886 0-22.388.176-28.508.53v-3.62c4.001-.176 6.958-.779 8.87-1.808 1.913-1.03 2.869-2.722 2.869-5.075 0-2.118-.795-4.884-2.383-8.296l-9.003-20.564h-37.95l-2.119 4.854c-3.412 7.766-5.119 13.974-5.119 18.622 0 4.178 1.324 7.193 3.972 9.047 2.648 1.853 6.56 2.927 11.738 3.22v3.62a404.908 404.908 0 0 0-20.74-.53c-6.414 0-11.297.176-14.651.53v-3.62c3-.587 5.707-2.397 8.12-5.427 2.412-3.03 5-7.693 7.766-13.989l38.216-87.199c1.883.118 3.265.177 4.148.177 1 0 2.383-.059 4.148-.177L557.18 97.26zm-59.398-67.429L480.307 69.46h34.774L497.782 29.83zM636.084 6.178c-4.118.177-7.075.647-8.87 1.412-1.794.765-3.03 2.162-3.706 4.192-.677 2.03-1.015 5.34-1.015 9.93v73.695c0 3.765.338 6.56 1.015 8.384.676 1.824 1.794 3.03 3.353 3.619 1.56.588 3.898.882 7.017.882h7.06c7.944 0 14.637-2.868 20.08-8.605 5.442-5.737 9.104-14.989 10.987-27.757h4.148c-.353 3.884-.53 8.826-.53 14.827 0 7.59.413 16.152 1.236 25.684-7.825-.354-21.005-.53-39.54-.53-24.83 0-43.51.176-56.043.53v-3.62c4.06-.176 7.002-.646 8.826-1.411 1.824-.765 3.074-2.177 3.75-4.237.678-2.059 1.016-5.354 1.016-9.884V21.71c0-4.53-.338-7.825-1.015-9.884-.677-2.06-1.927-3.472-3.751-4.237-1.824-.765-4.766-1.235-8.826-1.412V2.56c6.178.354 15.71.53 28.596.53 11.238 0 19.975-.176 26.212-.53v3.62zM741.731 0c5.53 0 10.267.618 14.21 1.853a55.346 55.346 0 0 1 11.12 4.855c2.883 1.706 4.913 2.56 6.09 2.56 1.118 0 1.956-.648 2.515-1.943.559-1.294 1.044-3.324 1.456-6.09h4.148c-.588 7.238-.882 19.77-.882 37.598h-4.148c-1.295-10.826-4.78-19.343-10.459-25.55-5.678-6.208-13.077-9.311-22.197-9.311-3.942 0-7.443.603-10.502 1.809-3.06 1.206-5.428 2.883-7.105 5.03-1.677 2.148-2.516 4.605-2.516 7.37 0 3.295.986 6.281 2.957 8.958 1.971 2.677 4.575 5.149 7.811 7.414 3.236 2.265 7.884 5.222 13.945 8.87l4.413 2.648c7.237 4.118 13.15 7.855 17.74 11.208 4.589 3.354 8.384 7.267 11.385 11.739 3 4.471 4.5 9.56 4.5 15.268 0 6.59-1.911 12.195-5.736 16.813-3.824 4.62-9.105 8.09-15.842 10.415-6.737 2.324-14.43 3.486-23.08 3.486-5.766 0-10.738-.633-14.915-1.898-4.178-1.265-8.502-2.986-12.974-5.163-2.942-1.47-5.03-2.206-6.266-2.206-1.118 0-1.972.632-2.56 1.897-.588 1.266-1.059 3.28-1.412 6.046h-4.148c.47-6.649.706-21.329.706-44.04h4.148c.883 12.826 4.354 22.902 10.414 30.228 6.06 7.325 14.622 10.988 25.683 10.988 3.472 0 6.737-.574 9.797-1.721 3.06-1.148 5.546-2.971 7.458-5.472 1.912-2.5 2.868-5.634 2.868-9.4 0-3.353-.912-6.354-2.736-9.002-1.824-2.648-4.442-5.178-7.855-7.59-3.412-2.412-8.178-5.384-14.297-8.914-7.414-4.237-13.607-8.193-18.579-11.87-4.972-3.678-9.002-7.812-12.091-12.401-3.09-4.59-4.634-9.65-4.634-15.18 0-6.355 1.81-11.724 5.428-16.107 3.619-4.384 8.561-7.679 14.828-9.885C726.683 1.103 733.787 0 741.73 0z" fill="#5B5EA6" fill-rule="evenodd"/></svg>