<svg viewBox="0 0 1098 557" xmlns="http://www.w3.org/2000/svg" xmlns:xlink="http://www.w3.org/1999/xlink"><title>logo</title><defs><path d="M158.25 0C170.856 18.722 304 241.8 305.58 245.924c0 1.982-71.23 147.454-75.82 159.678C224.264 393.867 8.263 14.6 0 .012L158.25 0zm325.543.27C522.841.635 648.31.758 651.64.843c-1.297 5.837-1.787 544.344-1.493 555.15-29.623-.43-143.793-.82-167.54-.93-1.959-7.318 1.738-523.09 1.187-554.795zm308.444.978c13.342.6 26.77.55 40.003 2.533 13.612.539 27.052 3.133 40.309 6.155 3.513.588 7.002 1.334 10.503 1.995l-.282.93c3.452-.196 6.806.746 10.05 1.823 3.586 1.31 7.21 2.521 10.784 3.904.771-.025 2.289-.086 3.048-.11l-.784 1.444c2.901-.294 5.558.893 8.08 2.178 5.275 1.884 10 5.005 15.313 6.779.122.159.355.465.465.624 11.322 4.418 20.723 12.31 30.602 19.175 3.403 2.533 6.267 5.69 9.486 8.444 5.717 6.032 11.788 11.771 15.864 19.114 2.387 4.025 4.64 8.125 7.088 12.114 2.472 4.136 3.55 8.908 5.63 13.24a93.311 93.311 0 0 1-.354 1.8c.318.085.942.244 1.248.33 7.724 22.417 8.373 47.038 3.207 70.092-4.786 18.38-12.89 35.927-23.906 51.42-1.616 1.26-3.011 2.777-3.917 4.613a470.673 470.673 0 0 1-3.648 4.65c-2.007 1.994-4.003 4.027-6.34 5.64-2.302 3.403-5.705 5.752-8.9 8.236-5.998 4.516-11.188 10.096-17.822 13.742-1.592 1.212-3.17 2.423-4.774 3.61-6.439 3.108-12.682 6.596-19.218 9.471-11.42 7-24.482 10.83-37.212 14.733-4.652 1.481-9.34 2.95-14.2 3.561-.49.257-1.456.771-1.946 1.028-18.496 2.178-37.224 6.706-55.88 3.463-.036.33-.134.992-.183 1.322-4.088-.526-8.213-.38-12.326-.16 9.94-5.69 17.088-14.769 25.35-22.454 1.861-3.708 5.031-6.436 7.7-9.532 4.517-5.666 7.063-12.494 10.796-18.637 3.611-6.302 4.848-13.595 8.532-19.848 1.31-2.435 1.775-5.189 2.363-7.868.44-2.472 1.285-4.822 2.19-7.159 3.073-8.345 4.163-17.315 5.742-26.052l1.42.098c.918-14.403 3.953-28.696 3.403-43.184.526-13.644-.698-27.288-2.718-40.773a78.607 78.607 0 0 1-1.31-4.614c-1.101-3.206-1.995-6.497-2.46-9.862-2.093-9.08-6.622-17.377-8.41-26.554-4.394-3.243-4.443-9.46-7.503-13.755-4.982-7.538-9.389-15.626-15.962-21.953-5.276-5.42-10.6-10.792-15.852-16.226-4.64-2.863-8.715-6.522-13.269-9.52zm-44.422 329.82c2.656.085 5.313.257 7.944.673 10.405-.869 20.822.563 31.214.88 4.162 1.041 8.483.784 12.73.686.05.294.123.869.16 1.163 6.39-.086 12.767.685 19.01 2.104 2.522.318 5.08.588 7.59 1.175 9.02 1.652 18.067 3.304 26.929 5.727 11.714 4.075 24.127 6.596 34.899 12.995.318.025.967.05 1.285.074 12.057 3.99 22.866 10.927 33.246 18.123 1.505 1.113 2.987 2.263 4.517 3.377 6.806 3.83 12.253 9.508 18.239 14.44 6.891 7.794 15.386 13.998 21.69 22.332 6.28 6.424 12.168 13.203 18.055 19.982 4.15 4.65 8.471 9.178 13.074 13.4 2.362 1.725 4.504 3.732 6.487 5.898 4.1 3.634 7.785 7.734 11.996 11.258 2.595 2.472 5.398 4.736 8.018 7.195.539.16 1.603.49 2.142.66.282.686.845 2.069 1.126 2.754 8.85 4.418 15.999 11.564 24.776 16.116.269.294.807.893 1.077 1.187 1.554.796 3.109 1.64 4.664 2.52 3.745 1.983 7.43 4.137 11.31 5.9 8.948 3.633 18.092 7.818 28.007 7.035-3.574 3.072-7.234 6.045-11.127 8.7-2.485 2.534-5.557 4.32-8.58 6.131-3.122 2.154-6.562 3.77-9.916 5.507-3.17 1.48-6.243 3.157-9.278 4.882-8.312 3.341-16.085 8.138-24.886 10.096-4.676 1.089-9.107 3.01-13.77 4.124-2.302.82-4.628 1.603-6.953 2.337-20.05 4.185-40.591 7.831-61.168 6.033-7.638-.27-15.374-.38-22.731-2.693-6.071-1.333-12.18-2.802-17.835-5.445-2.876-1.175-5.998-1.97-8.348-4.111-11.053-5.421-20.663-13.192-29.243-21.941-2.938-3.659-6.133-7.11-8.936-10.879-4.566-7.354-11.2-13.472-14.297-21.659-10.527-14.953-17.37-32.146-26.281-48.262-2.693-4.001-5.24-8.125-6.94-12.665-3.343-3.88-5.62-8.493-7.333-13.277-2.742-4.393-4.933-9.092-7.871-13.363-5.264-10.095-11.53-19.603-17.43-29.331-3.245-4.271-6.709-8.407-9.06-13.265-6.168-4.614-9.106-12.054-14.627-17.328-3.513-4.858-8.568-8.137-13.575-11.245z" id="a"/></defs><use fill="#A4A3CC" fill-rule="nonzero" xlink:href="#a"/></svg>