<svg viewBox="0 0 178 168" xmlns="http://www.w3.org/2000/svg"><title>instagram</title><path d="M116.044 82.498c0-7.591-2.837-14.072-8.503-19.442C101.876 57.686 95.04 55 87.031 55c-8.008 0-14.845 2.685-20.51 8.056-5.666 5.37-8.499 11.85-8.499 19.442 0 7.591 2.833 14.072 8.498 19.442 5.666 5.37 12.503 8.06 20.51 8.06 8.01 0 14.846-2.685 20.511-8.056 5.666-5.37 8.503-11.85 8.503-19.442v-.004zm17.93 1.504c0 11.933-4.406 22.081-13.234 30.45C111.912 122.82 101.201 127 88.617 127c-12.583 0-23.294-4.18-32.114-12.549-8.832-8.368-13.25-18.52-13.25-30.449 0-11.929 4.418-22.081 13.25-30.441C65.323 45.188 76.033 41 88.617 41c12.589 0 23.295 4.188 32.123 12.56 8.828 8.361 13.238 18.513 13.238 30.442h-.004zm11.6-45.01c0 2.758-1.034 5.114-3.097 7.07-2.059 1.954-4.538 2.938-7.446 2.938-2.9 0-5.387-.976-7.45-2.933-2.06-1.953-3.097-4.313-3.097-7.067 0-2.75 1.033-5.102 3.096-7.063 2.06-1.953 4.547-2.937 7.45-2.937 2.9 0 5.388.984 7.451 2.941 2.068 1.953 3.101 4.313 3.101 7.067l-.008-.016zM89.131 15.091l-8.892-.06c-5.385-.041-9.47-.041-12.261 0-2.791.04-6.528.149-11.218.33-4.687.186-8.68.554-11.973 1.103-3.293.55-6.062 1.232-8.308 2.04-3.877 1.465-7.285 3.594-10.225 6.388-2.948 2.787-5.198 6.018-6.744 9.693-.853 2.132-1.568 4.757-2.148 7.875-.583 3.125-.967 6.905-1.163 11.348-.192 4.45-.31 7.996-.35 10.637-.033 2.65-.033 6.522 0 11.63l.065 8.425-.06 8.428c-.034 5.109-.034 8.982 0 11.631.043 2.637.162 6.179.354 10.621.196 4.45.58 8.23 1.163 11.348.58 3.126 1.3 5.755 2.151 7.883 1.551 3.675 3.8 6.906 6.745 9.693 2.94 2.794 6.348 4.927 10.225 6.393 2.25.807 5.019 1.486 8.308 2.04 3.298.548 7.286.916 11.972 1.102 4.695.181 8.436.29 11.223.33 2.79.041 6.876.041 12.261 0 5.386-.04 8.351-.056 8.892-.056.546 0 3.507.016 8.892.057 5.381.04 9.471.04 12.262 0 2.786-.04 6.527-.15 11.214-.331 4.686-.186 8.678-.554 11.972-1.103 3.293-.553 6.067-1.232 8.308-2.04 3.877-1.47 7.285-3.594 10.234-6.388 2.94-2.787 5.189-6.026 6.74-9.693.852-2.132 1.568-4.765 2.151-7.883.576-3.121.963-6.905 1.16-11.348.19-4.442.306-7.988.349-10.629.042-2.645.042-6.518 0-11.63-.043-5.101-.06-7.908-.06-8.425 0-.513.017-3.324.06-8.428.042-5.109.042-8.982 0-11.631-.043-2.641-.158-6.179-.35-10.63-.196-4.442-.583-8.226-1.163-11.347-.588-3.122-1.304-5.747-2.156-7.875-1.55-3.675-3.792-6.906-6.74-9.693-2.94-2.794-6.357-4.927-10.225-6.393-2.25-.807-5.028-1.494-8.317-2.04-3.293-.548-7.285-.916-11.972-1.102-4.687-.181-8.427-.294-11.214-.33-2.79-.041-6.88-.041-12.27 0-5.381.04-8.342.056-8.888.056l-.004.004zM177.231 84c0 16.698-.195 28.257-.58 34.68-.77 15.162-5.54 26.9-14.307 35.212-8.767 8.31-21.146 12.83-37.149 13.559-6.766.36-18.959.549-36.573.549-17.615 0-29.803-.188-36.574-.553-15.999-.73-28.377-5.252-37.153-13.563C6.111 145.577 1.341 133.838.571 118.67.195 112.261 0 100.694 0 83.996c0-16.694.19-28.249.575-34.667.77-15.167 5.54-26.902 14.307-35.22C23.65 5.796 36.032 1.278 52.032.544 58.797.185 70.99 0 88.604 0c17.614 0 29.811.184 36.586.545 15.995.73 28.378 5.252 37.145 13.563 8.771 8.315 13.533 20.054 14.307 35.22.38 6.415.58 17.974.58 34.672h.008z" fill="#5B5EA6" fill-rule="nonzero"/></svg>